<svg id="Layer_1" enable-background="new 0 0 100 100" viewBox="0 0 100 100" xmlns="http://www.w3.org/2000/svg"><path d="m50 2.5c-26.1913986 0-47.5 21.3085995-47.5 47.5s21.3086014 47.5 47.5 47.5 47.5-21.3086014 47.5-47.5-21.3086014-47.5-47.5-47.5zm0 15.6678295c10.5356522 0 19.1011658 8.5561237 19.1011658 19.1011677 0 10.535656-8.5655136 19.1011696-19.1011658 19.1011696s-19.1011696-8.5655136-19.1011696-19.1011696c0-10.545044 8.5655174-19.1011677 19.1011696-19.1011677zm0 74.6413136c-12.8730659 0-24.4280891-5.7195053-32.2824173-14.7414017l1.1538754-3.8441315c2.4298344-8.0776443 9.8602543-13.6128845 18.2944126-13.6128845h25.6682587c8.4341583 0 15.8646393 5.5352402 18.2943573 13.6128845l1.1539307 3.8441315c-7.8543244 9.0219498-19.4093515 14.7414017-32.2824174 14.7414017z"/></svg>